<svg xmlns="http://www.w3.org/2000/svg" xmlns:xlink="http://www.w3.org/1999/xlink" width="140" height="140" viewBox="0 0 140 140"><defs><style>.a{fill:#146ab2;}.b{fill:#fff;}.c{filter:url(#a);}</style><filter id="a" x="0" y="0" width="140" height="140" filterUnits="userSpaceOnUse"><feOffset dy="5" input="SourceAlpha"/><feGaussianBlur stdDeviation="10" result="b"/><feFlood flood-opacity="0.149"/><feComposite operator="in" in2="b"/><feComposite in="SourceGraphic"/></filter></defs><g transform="translate(-1271 -630)"><g class="c" transform="matrix(1, 0, 0, 1, 1271, 630)"><circle class="a" cx="40" cy="40" r="40" transform="translate(30 25)"/></g><g transform="translate(-17.066 11.307)"><g transform="translate(1340.067 664.693)"><g transform="translate(0)"><path class="b" d="M21.642,0h-.06A18.176,18.176,0,0,0,7.327,29.5L4.676,35.668a.988.988,0,0,0,.516,1.3,1.009,1.009,0,0,0,.566.069l9.719-1.707a17.514,17.514,0,0,0,6.055,1.052A18.191,18.191,0,0,0,21.642,0ZM15.407,14.553h5.361a.993.993,0,0,1,0,1.985H15.407a.993.993,0,1,1,0-1.985ZM27.717,21.5H15.407a.993.993,0,1,1,0-1.985H27.717a.993.993,0,1,1,0,1.985Z" transform="translate(-3.366)"/></g></g><rect class="b" width="23.149" height="14.245" transform="translate(1347.13 674.76)"/></g></g></svg>