<svg xmlns="http://www.w3.org/2000/svg" width="237" height="20" viewBox="0 0 237 20"><defs><style>.a{fill:#656567;}</style></defs><g transform="translate(-1039 -5753)"><path class="a" d="M1129,5753h0v4h-2c-.69,0-1,.81-1,1.5v2.5h3v4h-3v8h-4v-8h-3v-4h3v-4a4,4,0,0,1,4-4Z" transform="translate(-80)"/><path class="a" d="M1169.989,5758a8.613,8.613,0,0,1-2.469.69,4.3,4.3,0,0,0,1.887-2.38,8.683,8.683,0,0,1-2.729,1.05,4.246,4.246,0,0,0-3.171-1.359,4.292,4.292,0,0,0-4.285,4.29,4.444,4.444,0,0,0,.11.979,12.251,12.251,0,0,1-8.871-4.48,4.264,4.264,0,0,0,1.335,5.71,4.271,4.271,0,0,1-1.957-.5v.03a4.3,4.3,0,0,0,3.452,4.21,4.235,4.235,0,0,1-1.937.07,4.292,4.292,0,0,0,4.014,2.98,8.569,8.569,0,0,1-5.349,1.84,8.771,8.771,0,0,1-1.023-.06,12.255,12.255,0,0,0,18.855-10.28c0-.19,0-.37-.01-.56A8.578,8.578,0,0,0,1169.989,5758Z" transform="translate(-60)"/><path class="a" d="M1190.8,5753h8.4a5.8,5.8,0,0,1,5.8,5.8v8.4a5.8,5.8,0,0,1-5.8,5.8h-8.4a5.8,5.8,0,0,1-5.8-5.8v-8.4a5.8,5.8,0,0,1,5.8-5.8m-.2,2a3.6,3.6,0,0,0-3.6,3.6h0v8.8a3.6,3.6,0,0,0,3.6,3.6h8.8a3.6,3.6,0,0,0,3.6-3.6h0v-8.8a3.6,3.6,0,0,0-3.6-3.6h-8.8m9.65,1.5a1.25,1.25,0,1,1-1.25,1.25,1.25,1.25,0,0,1,1.25-1.25M1195,5758a5,5,0,1,1-5,5,5,5,0,0,1,5-5m0,2a3,3,0,1,0,3,3A3,3,0,0,0,1195,5760Z" transform="translate(-40)"/><path class="a" d="M1240,5773h-4v-6.75a2.247,2.247,0,0,0-2.25-1.94,1.8,1.8,0,0,0-1.75,1.94V5773h-4v-12h4v2a4.586,4.586,0,0,1,3.5-1.76,4.509,4.509,0,0,1,4.5,4.51V5773m-14,0h-4v-12h4v12m-2-18a2,2,0,1,1-2,2A2,2,0,0,1,1224,5755Z" transform="translate(-20)"/><path class="a" d="M1264,5769l5.19-3-5.19-3v6m11.56-7.83a10.335,10.335,0,0,1,.28,1.9c.07.8.1,1.49.1,2.09l.06.84a19.873,19.873,0,0,1-.44,4.83,2.343,2.343,0,0,1-1.73,1.73,14.066,14.066,0,0,1-2.65.28c-1.3.07-2.49.1-3.59.1l-1.59.06a40.91,40.91,0,0,1-7.83-.44,2.343,2.343,0,0,1-1.73-1.73,10.339,10.339,0,0,1-.28-1.9c-.07-.8-.1-1.49-.1-2.09l-.06-.84a19.855,19.855,0,0,1,.44-4.83,2.342,2.342,0,0,1,1.73-1.73,14.063,14.063,0,0,1,2.65-.28c1.3-.07,2.49-.1,3.59-.1l1.59-.06a40.911,40.911,0,0,1,7.83.44A2.342,2.342,0,0,1,1275.56,5761.17Z"/></g></svg>